<?xml version="1.0" encoding="UTF-8"?><svg id="Ebene_2" xmlns="http://www.w3.org/2000/svg" viewBox="0 0 2396.03 600"><defs><style>.cls-1{fill:#2d2374;}</style></defs><g id="Logo"><path class="cls-1" d="m933.64,30.43c-67.2-50.4-162.52-36.78-212.92,30.42l-303.99,405.31c-27.72,36.96-20.23,89.39,16.73,117.11,36.96,27.72,89.39,20.23,117.11-16.73L936.68,51.72c5.04-6.72,3.68-16.25-3.04-21.29h0Z"/><path class="cls-1" d="m33.46,240.31c36.96-27.72,89.39-20.23,117.11,16.73l58.55,78.07,174.33-232.44c50.4-67.2,145.72-80.81,212.92-30.42h0c6.72,5.04,8.08,14.57,3.04,21.29l-322.21,429.61c-2.66,3.73-5.66,7.26-8.98,10.57-6.94,6.95-14.9,12.47-23.46,16.49-22.22,10.44-48.44,10.79-71.29,0-8.56-4.02-16.52-9.54-23.46-16.49-3.32-3.31-6.32-6.85-8.98-10.57L16.73,357.41c-27.72-36.96-20.23-89.39,16.73-117.11Z"/><path class="cls-1" d="m940,143.53h53.75l19.17,79.68,13.53,60.14h1.5l15.79-60.14,22.55-79.68h50.74l22.93,79.68,16.16,60.14h1.5l13.53-60.14,19.17-79.68h51.49l-54.5,197.32h-58.26l-24.05-83.44-13.91-51.12h-1.13l-13.53,51.12-24.05,83.44h-57.13l-55.25-197.32Z"/><path class="cls-1" d="m1278.64,143.53h55.63v197.32h-55.63v-197.32Zm59.76-56.94c0,17.64-14.3,31.95-31.95,31.95s-31.95-14.3-31.95-31.95,14.3-31.95,31.95-31.95,31.95,14.3,31.95,31.95Z"/><path class="cls-1" d="m1393.64,62.73h55.63v164.24h2.26l24.43-36.46,39.46-46.98h61.64l-65.77,75.55,73.29,121.77h-66.15l-44.35-83.44-24.81,27.81v55.63h-55.63V62.73Z"/><path class="cls-1" d="m1610.51,143.53h55.63v197.32h-55.63v-197.32Zm59.76-56.94c0,17.64-14.3,31.95-31.95,31.95s-31.95-14.3-31.95-31.95,14.3-31.95,31.95-31.95,31.95,14.3,31.95,31.95Z"/><path class="cls-1" d="m1725.52,340.85v-197.32h55.63v42.85h1.88c4.51-21.8,19.54-42.85,50.36-42.85h9.77v51.87h-13.91c-32.32,0-48.11,7.14-48.11,30.07v115.38h-55.63Z"/><path class="cls-1" d="m2016.05,340.85c-19.92,0-34.2-13.53-37.59-34.58h-2.25c-6.01,25.56-27.81,39.09-57.88,39.09-39.46,0-61.26-23.3-61.26-57.5,0-41.72,32.32-61.64,84.56-61.64h31.19v-12.4c0-19.17-9.4-31.19-32.7-31.19s-33.83,11.28-42.47,23.3l-33.07-29.32c15.79-23.3,38.34-37.59,79.68-37.59,55.63,0,84.19,25.56,84.19,72.16v86.44h18.42v43.22h-30.82Zm-43.22-59.76v-23.3h-27.06c-21.42,0-32.7,7.89-32.7,22.17v5.64c0,14.28,9.4,21.05,25.93,21.05,18.42,0,33.83-7.52,33.83-25.56Z"/><path class="cls-1" d="m2150.97,340.85c-38.34,0-58.63-19.92-58.63-57.5v-96.59h-27.81v-43.22h13.91c15.03,0,19.54-7.52,19.54-21.05v-32.32h49.99v53.37h39.09v43.22h-39.09v110.87h36.08v43.22h-33.07Z"/><path class="cls-1" d="m2211.86,242c0-62.39,33.08-102.98,92.46-102.98,65.4,0,91.71,47.36,91.71,100.73v16.54h-126.66v3.01c0,25.93,13.91,42.47,43.6,42.47,23.3,0,36.08-10.9,48.48-23.68l27.81,34.58c-17.66,20.3-46.61,32.7-82.69,32.7-60.51,0-94.71-40.21-94.71-103.36Zm57.5-21.42v3.01h69.16v-3.38c0-24.05-10.9-40.21-33.07-40.21s-36.08,16.16-36.08,40.59Z"/><path class="cls-1" d="m976.19,522.47v-13.83h14.28v-77.28h-14.28v-13.83h45.7v13.83h-14.43v77.28h14.43v13.83h-45.7Z"/><path class="cls-1" d="m1092.55,464.44l-11.58-22.25h-.45v80.28h-16.24v-104.94h18.94l34.28,58.03,11.58,22.25h.45v-80.28h16.24v104.94h-18.94l-34.28-58.03Z"/><path class="cls-1" d="m1213.12,432.56h-31.27v-15.03h79.53v15.03h-31.27v89.91h-16.99v-89.91Z"/><path class="cls-1" d="m1297.46,522.47v-104.94h67.2v15.03h-50.21v29.17h45.55v15.03h-45.55v30.67h50.21v15.03h-67.2Z"/><path class="cls-1" d="m1424.65,522.47h-16.99v-104.94h45.25c18.79,0,30.37,12.18,30.37,31.57,0,14.88-7.07,25.26-20.45,29.17l22.7,44.2h-18.94l-21.05-42.4h-20.9v42.4Zm27.06-56.68c8.57,0,13.68-4.66,13.68-13.08v-7.22c0-8.42-5.11-13.08-13.68-13.08h-27.06v33.38h27.06Z"/><path class="cls-1" d="m1555.45,464.44l-11.58-22.25h-.45v80.28h-16.24v-104.94h18.94l34.28,58.03,11.58,22.25h.45v-80.28h16.24v104.94h-18.94l-34.28-58.03Z"/><path class="cls-1" d="m1719.62,522.47l-9.47-28.41h-39.24l-9.17,28.41h-17.29l35.78-104.94h21.35l35.78,104.94h-17.74Zm-28.72-89.3h-.75l-15.18,46.31h30.97l-15.03-46.31Z"/><path class="cls-1" d="m1785.31,432.56h-31.27v-15.03h79.53v15.03h-31.27v89.91h-16.99v-89.91Z"/><path class="cls-1" d="m1865.75,522.47v-13.83h14.28v-77.28h-14.28v-13.83h45.7v13.83h-14.43v77.28h14.43v13.83h-45.7Z"/><path class="cls-1" d="m1949.18,470c0-35.33,17.89-54.27,45.25-54.27s45.25,18.94,45.25,54.27-17.89,54.27-45.25,54.27-45.25-18.94-45.25-54.27Zm72.31,8.27v-16.54c0-19.09-10.82-30.82-27.06-30.82s-27.06,11.73-27.06,30.82v16.54c0,19.09,10.82,30.82,27.06,30.82s27.06-11.73,27.06-30.82Z"/><path class="cls-1" d="m2108.69,464.44l-11.58-22.25h-.45v80.28h-16.24v-104.94h18.94l34.28,58.03,11.58,22.25h.45v-80.28h16.24v104.94h-18.94l-34.28-58.03Z"/><path class="cls-1" d="m2272.86,522.47l-9.47-28.41h-39.24l-9.17,28.41h-17.29l35.78-104.94h21.35l35.78,104.94h-17.74Zm-28.72-89.3h-.75l-15.18,46.31h30.97l-15.03-46.31Z"/><path class="cls-1" d="m2326.38,522.47v-104.94h16.99v89.91h42.7v15.03h-59.69Z"/></g></svg>